<?xml version="1.0" encoding="UTF-8"?>
<svg xmlns="http://www.w3.org/2000/svg" xmlns:xlink="http://www.w3.org/1999/xlink" width="50pt" height="50pt" viewBox="0 0 50 50" version="1.1">
<g id="surface1">
<path style=" stroke:none;fill-rule:nonzero;fill:rgb(100%,100%,100%);fill-opacity:1;" d="M 10.417969 0 L 10.417969 8.332031 L 14.582031 8.332031 L 14.582031 0 Z M 35.417969 0 L 35.417969 8.332031 L 39.582031 8.332031 L 39.582031 0 Z M 2.082031 6.25 C 0.9375 6.25 0 7.1875 0 8.332031 L 0 14.582031 C 0 15.730469 0.9375 16.667969 2.082031 16.667969 L 2.082031 50 L 47.917969 50 L 47.917969 16.667969 C 49.0625 16.667969 50 15.730469 50 14.582031 L 50 8.332031 C 50 7.1875 49.0625 6.25 47.917969 6.25 L 41.667969 6.25 L 41.667969 10.417969 L 33.332031 10.417969 L 33.332031 6.25 L 16.667969 6.25 L 16.667969 10.417969 L 8.332031 10.417969 L 8.332031 6.25 Z M 6.25 16.667969 L 43.75 16.667969 L 43.75 45.832031 L 6.25 45.832031 Z M 10.417969 20.832031 L 10.417969 25 L 14.582031 25 L 14.582031 20.832031 Z M 18.75 20.832031 L 18.75 25 L 22.917969 25 L 22.917969 20.832031 Z M 27.082031 20.832031 L 27.082031 25 L 31.25 25 L 31.25 20.832031 Z M 35.417969 20.832031 L 35.417969 25 L 39.582031 25 L 39.582031 20.832031 Z M 10.417969 29.167969 L 10.417969 33.332031 L 14.582031 33.332031 L 14.582031 29.167969 Z M 18.75 29.167969 L 18.75 33.332031 L 22.917969 33.332031 L 22.917969 29.167969 Z M 27.082031 29.167969 L 27.082031 33.332031 L 31.25 33.332031 L 31.25 29.167969 Z M 35.417969 29.167969 L 35.417969 33.332031 L 39.582031 33.332031 L 39.582031 29.167969 Z M 10.417969 37.5 L 10.417969 41.667969 L 14.582031 41.667969 L 14.582031 37.5 Z M 18.75 37.5 L 18.75 41.667969 L 22.917969 41.667969 L 22.917969 37.5 Z M 27.082031 37.5 L 27.082031 41.667969 L 31.25 41.667969 L 31.25 37.5 Z M 35.417969 37.5 L 35.417969 41.667969 L 39.582031 41.667969 L 39.582031 37.5 Z "/>
</g>
</svg>
