<?xml version="1.0" encoding="UTF-8"?>
<svg xmlns="http://www.w3.org/2000/svg" xmlns:xlink="http://www.w3.org/1999/xlink" width="50pt" height="50pt" viewBox="0 0 50 50" version="1.1">
<g id="surface1">
<path style=" stroke:none;fill-rule:nonzero;fill:rgb(255,255,255);fill-opacity:1;" d="M 38.460938 3.90625 C 37.402344 3.90625 36.539063 4.769531 36.539063 5.828125 L 36.539063 15.023438 L 26.382813 4.867188 C 25.632813 4.117188 24.367188 4.117188 23.617188 4.867188 L 1.082031 27.464844 C 0.332031 28.214844 0.332031 29.417969 1.082031 30.167969 C 1.832031 30.917969 3.035156 30.917969 3.785156 30.167969 L 25 8.953125 L 46.273438 30.226563 C 46.648438 30.605469 47.160156 30.828125 47.65625 30.828125 C 48.152344 30.828125 48.601563 30.605469 48.976563 30.226563 C 49.730469 29.476563 49.730469 28.273438 48.976563 27.523438 L 42.308594 20.851563 L 42.308594 5.828125 C 42.308594 4.769531 41.445313 3.90625 40.382813 3.90625 Z M 25 12.5 L 3.847656 33.652344 L 3.847656 44.230469 C 3.847656 47.414063 6.429688 50 9.617188 50 L 40.382813 50 C 43.570313 50 46.152344 47.414063 46.152344 44.230469 L 46.152344 33.652344 Z M 21.152344 30.769531 L 28.847656 30.769531 C 29.90625 30.769531 30.769531 31.632813 30.769531 32.691406 L 30.769531 44.230469 C 30.769531 45.289063 29.90625 46.152344 28.847656 46.152344 L 21.152344 46.152344 C 20.09375 46.152344 19.230469 45.289063 19.230469 44.230469 L 19.230469 32.691406 C 19.230469 31.632813 20.09375 30.769531 21.152344 30.769531 Z "/>
</g>
</svg>
