<?xml version="1.0" encoding="UTF-8"?>
<svg xmlns="http://www.w3.org/2000/svg" xmlns:xlink="http://www.w3.org/1999/xlink" width="50pt" height="50pt" viewBox="0 0 50 50" version="1.1">
<g id="surface1">
<path style=" stroke:none;fill-rule:nonzero;fill:rgb(100%,100%,100%);fill-opacity:1;" d="M 25 6.25 C 14.640625 6.25 6.25 14.640625 6.25 25 C 6.25 32.945313 11.195313 39.726563 18.171875 42.460938 C 18.003906 40.980469 17.851563 38.703125 18.230469 37.078125 C 18.574219 35.621094 20.429688 27.757813 20.429688 27.757813 C 20.429688 27.757813 19.871094 26.636719 19.871094 24.976563 C 19.871094 22.371094 21.378906 20.421875 23.261719 20.421875 C 24.859375 20.421875 25.632813 21.625 25.632813 23.066406 C 25.632813 24.675781 24.609375 27.082031 24.078125 29.308594 C 23.640625 31.175781 25.019531 32.695313 26.855469 32.695313 C 30.1875 32.695313 32.75 29.179688 32.75 24.109375 C 32.75 19.621094 29.527344 16.484375 24.921875 16.484375 C 19.585938 16.484375 16.453125 20.484375 16.453125 24.621094 C 16.453125 26.234375 17.078125 27.960938 17.851563 28.898438 C 18.003906 29.082031 18.023438 29.25 17.980469 29.4375 C 17.835938 30.03125 17.523438 31.304688 17.460938 31.5625 C 17.375 31.910156 17.1875 31.980469 16.832031 31.8125 C 14.488281 30.726563 13.023438 27.300781 13.023438 24.546875 C 13.023438 18.632813 17.320313 13.203125 25.414063 13.203125 C 31.921875 13.203125 36.976563 17.835938 36.976563 24.035156 C 36.976563 30.492188 32.898438 35.695313 27.246094 35.695313 C 25.347656 35.695313 23.558594 34.710938 22.949219 33.542969 C 22.949219 33.542969 22.007813 37.121094 21.777344 38 C 21.355469 39.628906 20.214844 41.667969 19.445313 42.914063 C 21.203125 43.457031 23.066406 43.75 25 43.75 C 35.359375 43.75 43.75 35.359375 43.75 25 C 43.75 14.640625 35.359375 6.25 25 6.25 Z "/>
</g>
</svg>
