<?xml version="1.0" encoding="UTF-8"?>
<svg xmlns="http://www.w3.org/2000/svg" xmlns:xlink="http://www.w3.org/1999/xlink" width="50pt" height="50pt" viewBox="0 0 50 50" version="1.1">
<g id="surface1">
<path style=" stroke:none;fill-rule:nonzero;fill:rgb(100%,100%,100%);fill-opacity:1;" d="M 4.042969 44.230469 C 4.042969 44.230469 4.042969 41.347656 4.042969 40.964844 C 4.042969 36.734375 10.382813 32.886719 17.308594 31.535156 C 17.308594 31.535156 19.425781 30.386719 18.847656 28.269531 C 16.730469 25.578125 16.152344 22.695313 16.152344 22.695313 C 15.769531 22.5 15.1875 22.117188 14.804688 21.730469 C 14.226563 20.957031 13.460938 18.652344 13.65625 16.925781 C 13.84375 15.382813 14.226563 15.964844 14.421875 15.578125 C 12.882813 12.117188 13.65625 7.691406 15.382813 4.425781 C 19.035156 -1.921875 26.726563 0 27.882813 2.304688 C 35.195313 0.960938 35 12.5 33.847656 15.382813 C 33.847656 15.382813 34.421875 15.578125 34.421875 18.269531 C 34.230469 21.152344 31.925781 22.882813 31.925781 22.882813 C 31.925781 23.65625 30.964844 25.960938 29.425781 28.078125 C 28.078125 30.769531 30.769531 31.347656 30.769531 31.347656 C 37.695313 32.691406 44.035156 36.539063 44.035156 40.769531 C 44.035156 41.152344 44.035156 44.035156 44.035156 44.035156 C 44.035156 46.730469 33.652344 49.617188 24.039063 49.617188 C 14.617188 49.617188 4.042969 48.65625 4.042969 44.230469 Z "/>
</g>
</svg>
